# xmcd
#
# Track frame offsets:
#	150
#	17733
#	32546
#	48187
#	67292
#	80922
#	104453
#	117237
#	132617
#	152571
#	168276
#	182583
#	202430
#	228199
#	243979
#
# Disc length: 3444 seconds
#
# Revision: 0
# Processed by: cddbd v1.5.1PL0 Copyright (c) Steve Scherf et al.
# Submitted via: dBpowerAMP V4.0
#
DISCID=d00d720f
DTITLE=Robbie Fulks - Georgia Hard
DYEAR=1900
DGENRE=Americana
TTITLE0=Where There's A Road
TTITLE1=It's Always Raining Somewhere
TTITLE2=Leave It To A Loser
TTITLE3=Georgia Hard
TTITLE4=I'm Gonna Take You Home
TTITLE5=Coldwater, Tennessee
TTITLE6=All You Can Cheat
TTITLE7=Countrier Than Thou
TTITLE8=If They Could Only See Me Now
TTITLE9=I Never Did Like Planes
TTITLE10=Each Night I Try
TTITLE11=Doin' Right (For All The Wrong Reasons)
TTITLE12=You Don't Want What I Have
TTITLE13=Right On Redd
TTITLE14=Goodbye, Cruel Girl
EXTD=Radio vagabond and Yep Roc present.....
EXTT0=
EXTT1=
EXTT2=
EXTT3=
EXTT4=
EXTT5=
EXTT6=
EXTT7=
EXTT8=
EXTT9=
EXTT10=
EXTT11=
EXTT12=
EXTT13=
EXTT14=
PLAYORDER=
